<?xml version="1.0" encoding="utf-8" standalone="no"?>
<!DOCTYPE svg PUBLIC "-//W3C//DTD SVG 1.1//EN"
  "http://www.w3.org/Graphics/SVG/1.1/DTD/svg11.dtd">
<!-- Created with matplotlib (http://matplotlib.org/) -->
<svg height="288pt" version="1.1" viewBox="0 0 432 288" width="432pt" xmlns="http://www.w3.org/2000/svg" xmlns:xlink="http://www.w3.org/1999/xlink">
 <defs>
  <style type="text/css">
*{stroke-linecap:butt;stroke-linejoin:round;}
  </style>
 </defs>
 <g id="figure_1">
  <g id="patch_1">
   <path d="M 0 288 
L 432 288 
L 432 0 
L 0 0 
z
" style="fill:#ffffff;"/>
  </g>
  <g id="axes_1">
   <g id="patch_2">
    <path d="M 54 252 
L 388.8 252 
L 388.8 34.56 
L 54 34.56 
z
" style="fill:#ffffff;"/>
   </g>
   <g id="matplotlib.axis_1">
    <g id="xtick_1">
     <g id="line2d_1">
      <path clip-path="url(#p94987b371c)" d="M 69.218182 252 
L 69.218182 34.56 
" style="fill:none;stroke:#b0b0b0;stroke-linecap:square;stroke-width:0.8;"/>
     </g>
     <g id="line2d_2">
      <defs>
       <path d="M 0 0 
L 0 3.5 
" id="m732ebb7730" style="stroke:#000000;stroke-width:0.8;"/>
      </defs>
      <g>
       <use style="stroke:#000000;stroke-width:0.8;" x="69.218182" xlink:href="#m732ebb7730" y="252"/>
      </g>
     </g>
     <g id="text_1">
      <!-- 0 -->
      <defs>
       <path d="M 31.78125 66.40625 
Q 24.171875 66.40625 20.328125 58.90625 
Q 16.5 51.421875 16.5 36.375 
Q 16.5 21.390625 20.328125 13.890625 
Q 24.171875 6.390625 31.78125 6.390625 
Q 39.453125 6.390625 43.28125 13.890625 
Q 47.125 21.390625 47.125 36.375 
Q 47.125 51.421875 43.28125 58.90625 
Q 39.453125 66.40625 31.78125 66.40625 
z
M 31.78125 74.21875 
Q 44.046875 74.21875 50.515625 64.515625 
Q 56.984375 54.828125 56.984375 36.375 
Q 56.984375 17.96875 50.515625 8.265625 
Q 44.046875 -1.421875 31.78125 -1.421875 
Q 19.53125 -1.421875 13.0625 8.265625 
Q 6.59375 17.96875 6.59375 36.375 
Q 6.59375 54.828125 13.0625 64.515625 
Q 19.53125 74.21875 31.78125 74.21875 
z
" id="DejaVuSans-30"/>
      </defs>
      <g transform="translate(66.036932 266.598437)scale(0.1 -0.1)">
       <use xlink:href="#DejaVuSans-30"/>
      </g>
     </g>
    </g>
    <g id="xtick_2">
     <g id="line2d_3">
      <path clip-path="url(#p94987b371c)" d="M 142.382517 252 
L 142.382517 34.56 
" style="fill:none;stroke:#b0b0b0;stroke-linecap:square;stroke-width:0.8;"/>
     </g>
     <g id="line2d_4">
      <g>
       <use style="stroke:#000000;stroke-width:0.8;" x="142.382517" xlink:href="#m732ebb7730" y="252"/>
      </g>
     </g>
     <g id="text_2">
      <!-- 50 -->
      <defs>
       <path d="M 10.796875 72.90625 
L 49.515625 72.90625 
L 49.515625 64.59375 
L 19.828125 64.59375 
L 19.828125 46.734375 
Q 21.96875 47.46875 24.109375 47.828125 
Q 26.265625 48.1875 28.421875 48.1875 
Q 40.625 48.1875 47.75 41.5 
Q 54.890625 34.8125 54.890625 23.390625 
Q 54.890625 11.625 47.5625 5.09375 
Q 40.234375 -1.421875 26.90625 -1.421875 
Q 22.3125 -1.421875 17.546875 -0.640625 
Q 12.796875 0.140625 7.71875 1.703125 
L 7.71875 11.625 
Q 12.109375 9.234375 16.796875 8.0625 
Q 21.484375 6.890625 26.703125 6.890625 
Q 35.15625 6.890625 40.078125 11.328125 
Q 45.015625 15.765625 45.015625 23.390625 
Q 45.015625 31 40.078125 35.4375 
Q 35.15625 39.890625 26.703125 39.890625 
Q 22.75 39.890625 18.8125 39.015625 
Q 14.890625 38.140625 10.796875 36.28125 
z
" id="DejaVuSans-35"/>
      </defs>
      <g transform="translate(136.020017 266.598437)scale(0.1 -0.1)">
       <use xlink:href="#DejaVuSans-35"/>
       <use x="63.623047" xlink:href="#DejaVuSans-30"/>
      </g>
     </g>
    </g>
    <g id="xtick_3">
     <g id="line2d_5">
      <path clip-path="url(#p94987b371c)" d="M 215.546853 252 
L 215.546853 34.56 
" style="fill:none;stroke:#b0b0b0;stroke-linecap:square;stroke-width:0.8;"/>
     </g>
     <g id="line2d_6">
      <g>
       <use style="stroke:#000000;stroke-width:0.8;" x="215.546853" xlink:href="#m732ebb7730" y="252"/>
      </g>
     </g>
     <g id="text_3">
      <!-- 100 -->
      <defs>
       <path d="M 12.40625 8.296875 
L 28.515625 8.296875 
L 28.515625 63.921875 
L 10.984375 60.40625 
L 10.984375 69.390625 
L 28.421875 72.90625 
L 38.28125 72.90625 
L 38.28125 8.296875 
L 54.390625 8.296875 
L 54.390625 0 
L 12.40625 0 
z
" id="DejaVuSans-31"/>
      </defs>
      <g transform="translate(206.003103 266.598437)scale(0.1 -0.1)">
       <use xlink:href="#DejaVuSans-31"/>
       <use x="63.623047" xlink:href="#DejaVuSans-30"/>
       <use x="127.246094" xlink:href="#DejaVuSans-30"/>
      </g>
     </g>
    </g>
    <g id="xtick_4">
     <g id="line2d_7">
      <path clip-path="url(#p94987b371c)" d="M 288.711189 252 
L 288.711189 34.56 
" style="fill:none;stroke:#b0b0b0;stroke-linecap:square;stroke-width:0.8;"/>
     </g>
     <g id="line2d_8">
      <g>
       <use style="stroke:#000000;stroke-width:0.8;" x="288.711189" xlink:href="#m732ebb7730" y="252"/>
      </g>
     </g>
     <g id="text_4">
      <!-- 150 -->
      <g transform="translate(279.167439 266.598437)scale(0.1 -0.1)">
       <use xlink:href="#DejaVuSans-31"/>
       <use x="63.623047" xlink:href="#DejaVuSans-35"/>
       <use x="127.246094" xlink:href="#DejaVuSans-30"/>
      </g>
     </g>
    </g>
    <g id="xtick_5">
     <g id="line2d_9">
      <path clip-path="url(#p94987b371c)" d="M 361.875524 252 
L 361.875524 34.56 
" style="fill:none;stroke:#b0b0b0;stroke-linecap:square;stroke-width:0.8;"/>
     </g>
     <g id="line2d_10">
      <g>
       <use style="stroke:#000000;stroke-width:0.8;" x="361.875524" xlink:href="#m732ebb7730" y="252"/>
      </g>
     </g>
     <g id="text_5">
      <!-- 200 -->
      <defs>
       <path d="M 19.1875 8.296875 
L 53.609375 8.296875 
L 53.609375 0 
L 7.328125 0 
L 7.328125 8.296875 
Q 12.9375 14.109375 22.625 23.890625 
Q 32.328125 33.6875 34.8125 36.53125 
Q 39.546875 41.84375 41.421875 45.53125 
Q 43.3125 49.21875 43.3125 52.78125 
Q 43.3125 58.59375 39.234375 62.25 
Q 35.15625 65.921875 28.609375 65.921875 
Q 23.96875 65.921875 18.8125 64.3125 
Q 13.671875 62.703125 7.8125 59.421875 
L 7.8125 69.390625 
Q 13.765625 71.78125 18.9375 73 
Q 24.125 74.21875 28.421875 74.21875 
Q 39.75 74.21875 46.484375 68.546875 
Q 53.21875 62.890625 53.21875 53.421875 
Q 53.21875 48.921875 51.53125 44.890625 
Q 49.859375 40.875 45.40625 35.40625 
Q 44.1875 33.984375 37.640625 27.21875 
Q 31.109375 20.453125 19.1875 8.296875 
z
" id="DejaVuSans-32"/>
      </defs>
      <g transform="translate(352.331774 266.598437)scale(0.1 -0.1)">
       <use xlink:href="#DejaVuSans-32"/>
       <use x="63.623047" xlink:href="#DejaVuSans-30"/>
       <use x="127.246094" xlink:href="#DejaVuSans-30"/>
      </g>
     </g>
    </g>
    <g id="text_6">
     <!-- Generations -->
     <defs>
      <path d="M 59.515625 10.40625 
L 59.515625 29.984375 
L 43.40625 29.984375 
L 43.40625 38.09375 
L 69.28125 38.09375 
L 69.28125 6.78125 
Q 63.578125 2.734375 56.6875 0.65625 
Q 49.8125 -1.421875 42 -1.421875 
Q 24.90625 -1.421875 15.25 8.5625 
Q 5.609375 18.5625 5.609375 36.375 
Q 5.609375 54.25 15.25 64.234375 
Q 24.90625 74.21875 42 74.21875 
Q 49.125 74.21875 55.546875 72.453125 
Q 61.96875 70.703125 67.390625 67.28125 
L 67.390625 56.78125 
Q 61.921875 61.421875 55.765625 63.765625 
Q 49.609375 66.109375 42.828125 66.109375 
Q 29.4375 66.109375 22.71875 58.640625 
Q 16.015625 51.171875 16.015625 36.375 
Q 16.015625 21.625 22.71875 14.15625 
Q 29.4375 6.6875 42.828125 6.6875 
Q 48.046875 6.6875 52.140625 7.59375 
Q 56.25 8.5 59.515625 10.40625 
z
" id="DejaVuSans-47"/>
      <path d="M 56.203125 29.59375 
L 56.203125 25.203125 
L 14.890625 25.203125 
Q 15.484375 15.921875 20.484375 11.0625 
Q 25.484375 6.203125 34.421875 6.203125 
Q 39.59375 6.203125 44.453125 7.46875 
Q 49.3125 8.734375 54.109375 11.28125 
L 54.109375 2.78125 
Q 49.265625 0.734375 44.1875 -0.34375 
Q 39.109375 -1.421875 33.890625 -1.421875 
Q 20.796875 -1.421875 13.15625 6.1875 
Q 5.515625 13.8125 5.515625 26.8125 
Q 5.515625 40.234375 12.765625 48.109375 
Q 20.015625 56 32.328125 56 
Q 43.359375 56 49.78125 48.890625 
Q 56.203125 41.796875 56.203125 29.59375 
z
M 47.21875 32.234375 
Q 47.125 39.59375 43.09375 43.984375 
Q 39.0625 48.390625 32.421875 48.390625 
Q 24.90625 48.390625 20.390625 44.140625 
Q 15.875 39.890625 15.1875 32.171875 
z
" id="DejaVuSans-65"/>
      <path d="M 54.890625 33.015625 
L 54.890625 0 
L 45.90625 0 
L 45.90625 32.71875 
Q 45.90625 40.484375 42.875 44.328125 
Q 39.84375 48.1875 33.796875 48.1875 
Q 26.515625 48.1875 22.3125 43.546875 
Q 18.109375 38.921875 18.109375 30.90625 
L 18.109375 0 
L 9.078125 0 
L 9.078125 54.6875 
L 18.109375 54.6875 
L 18.109375 46.1875 
Q 21.34375 51.125 25.703125 53.5625 
Q 30.078125 56 35.796875 56 
Q 45.21875 56 50.046875 50.171875 
Q 54.890625 44.34375 54.890625 33.015625 
z
" id="DejaVuSans-6e"/>
      <path d="M 41.109375 46.296875 
Q 39.59375 47.171875 37.8125 47.578125 
Q 36.03125 48 33.890625 48 
Q 26.265625 48 22.1875 43.046875 
Q 18.109375 38.09375 18.109375 28.8125 
L 18.109375 0 
L 9.078125 0 
L 9.078125 54.6875 
L 18.109375 54.6875 
L 18.109375 46.1875 
Q 20.953125 51.171875 25.484375 53.578125 
Q 30.03125 56 36.53125 56 
Q 37.453125 56 38.578125 55.875 
Q 39.703125 55.765625 41.0625 55.515625 
z
" id="DejaVuSans-72"/>
      <path d="M 34.28125 27.484375 
Q 23.390625 27.484375 19.1875 25 
Q 14.984375 22.515625 14.984375 16.5 
Q 14.984375 11.71875 18.140625 8.90625 
Q 21.296875 6.109375 26.703125 6.109375 
Q 34.1875 6.109375 38.703125 11.40625 
Q 43.21875 16.703125 43.21875 25.484375 
L 43.21875 27.484375 
z
M 52.203125 31.203125 
L 52.203125 0 
L 43.21875 0 
L 43.21875 8.296875 
Q 40.140625 3.328125 35.546875 0.953125 
Q 30.953125 -1.421875 24.3125 -1.421875 
Q 15.921875 -1.421875 10.953125 3.296875 
Q 6 8.015625 6 15.921875 
Q 6 25.140625 12.171875 29.828125 
Q 18.359375 34.515625 30.609375 34.515625 
L 43.21875 34.515625 
L 43.21875 35.40625 
Q 43.21875 41.609375 39.140625 45 
Q 35.0625 48.390625 27.6875 48.390625 
Q 23 48.390625 18.546875 47.265625 
Q 14.109375 46.140625 10.015625 43.890625 
L 10.015625 52.203125 
Q 14.9375 54.109375 19.578125 55.046875 
Q 24.21875 56 28.609375 56 
Q 40.484375 56 46.34375 49.84375 
Q 52.203125 43.703125 52.203125 31.203125 
z
" id="DejaVuSans-61"/>
      <path d="M 18.3125 70.21875 
L 18.3125 54.6875 
L 36.8125 54.6875 
L 36.8125 47.703125 
L 18.3125 47.703125 
L 18.3125 18.015625 
Q 18.3125 11.328125 20.140625 9.421875 
Q 21.96875 7.515625 27.59375 7.515625 
L 36.8125 7.515625 
L 36.8125 0 
L 27.59375 0 
Q 17.1875 0 13.234375 3.875 
Q 9.28125 7.765625 9.28125 18.015625 
L 9.28125 47.703125 
L 2.6875 47.703125 
L 2.6875 54.6875 
L 9.28125 54.6875 
L 9.28125 70.21875 
z
" id="DejaVuSans-74"/>
      <path d="M 9.421875 54.6875 
L 18.40625 54.6875 
L 18.40625 0 
L 9.421875 0 
z
M 9.421875 75.984375 
L 18.40625 75.984375 
L 18.40625 64.59375 
L 9.421875 64.59375 
z
" id="DejaVuSans-69"/>
      <path d="M 30.609375 48.390625 
Q 23.390625 48.390625 19.1875 42.75 
Q 14.984375 37.109375 14.984375 27.296875 
Q 14.984375 17.484375 19.15625 11.84375 
Q 23.34375 6.203125 30.609375 6.203125 
Q 37.796875 6.203125 41.984375 11.859375 
Q 46.1875 17.53125 46.1875 27.296875 
Q 46.1875 37.015625 41.984375 42.703125 
Q 37.796875 48.390625 30.609375 48.390625 
z
M 30.609375 56 
Q 42.328125 56 49.015625 48.375 
Q 55.71875 40.765625 55.71875 27.296875 
Q 55.71875 13.875 49.015625 6.21875 
Q 42.328125 -1.421875 30.609375 -1.421875 
Q 18.84375 -1.421875 12.171875 6.21875 
Q 5.515625 13.875 5.515625 27.296875 
Q 5.515625 40.765625 12.171875 48.375 
Q 18.84375 56 30.609375 56 
z
" id="DejaVuSans-6f"/>
      <path d="M 44.28125 53.078125 
L 44.28125 44.578125 
Q 40.484375 46.53125 36.375 47.5 
Q 32.28125 48.484375 27.875 48.484375 
Q 21.1875 48.484375 17.84375 46.4375 
Q 14.5 44.390625 14.5 40.28125 
Q 14.5 37.15625 16.890625 35.375 
Q 19.28125 33.59375 26.515625 31.984375 
L 29.59375 31.296875 
Q 39.15625 29.25 43.1875 25.515625 
Q 47.21875 21.78125 47.21875 15.09375 
Q 47.21875 7.46875 41.1875 3.015625 
Q 35.15625 -1.421875 24.609375 -1.421875 
Q 20.21875 -1.421875 15.453125 -0.5625 
Q 10.6875 0.296875 5.421875 2 
L 5.421875 11.28125 
Q 10.40625 8.6875 15.234375 7.390625 
Q 20.0625 6.109375 24.8125 6.109375 
Q 31.15625 6.109375 34.5625 8.28125 
Q 37.984375 10.453125 37.984375 14.40625 
Q 37.984375 18.0625 35.515625 20.015625 
Q 33.0625 21.96875 24.703125 23.78125 
L 21.578125 24.515625 
Q 13.234375 26.265625 9.515625 29.90625 
Q 5.8125 33.546875 5.8125 39.890625 
Q 5.8125 47.609375 11.28125 51.796875 
Q 16.75 56 26.8125 56 
Q 31.78125 56 36.171875 55.265625 
Q 40.578125 54.546875 44.28125 53.078125 
z
" id="DejaVuSans-73"/>
     </defs>
     <g transform="translate(190.902344 280.276563)scale(0.1 -0.1)">
      <use xlink:href="#DejaVuSans-47"/>
      <use x="77.490234" xlink:href="#DejaVuSans-65"/>
      <use x="139.013672" xlink:href="#DejaVuSans-6e"/>
      <use x="202.392578" xlink:href="#DejaVuSans-65"/>
      <use x="263.916016" xlink:href="#DejaVuSans-72"/>
      <use x="305.029297" xlink:href="#DejaVuSans-61"/>
      <use x="366.308594" xlink:href="#DejaVuSans-74"/>
      <use x="405.517578" xlink:href="#DejaVuSans-69"/>
      <use x="433.300781" xlink:href="#DejaVuSans-6f"/>
      <use x="494.482422" xlink:href="#DejaVuSans-6e"/>
      <use x="557.861328" xlink:href="#DejaVuSans-73"/>
     </g>
    </g>
   </g>
   <g id="matplotlib.axis_2">
    <g id="ytick_1">
     <g id="line2d_11">
      <path clip-path="url(#p94987b371c)" d="M 54 220.199521 
L 388.8 220.199521 
" style="fill:none;stroke:#b0b0b0;stroke-linecap:square;stroke-width:0.8;"/>
     </g>
     <g id="line2d_12">
      <defs>
       <path d="M 0 0 
L -3.5 0 
" id="m4423b87bee" style="stroke:#000000;stroke-width:0.8;"/>
      </defs>
      <g>
       <use style="stroke:#000000;stroke-width:0.8;" x="54" xlink:href="#m4423b87bee" y="220.199521"/>
      </g>
     </g>
     <g id="text_7">
      <!-- 2.0 -->
      <defs>
       <path d="M 10.6875 12.40625 
L 21 12.40625 
L 21 0 
L 10.6875 0 
z
" id="DejaVuSans-2e"/>
      </defs>
      <g transform="translate(31.096875 223.998739)scale(0.1 -0.1)">
       <use xlink:href="#DejaVuSans-32"/>
       <use x="63.623047" xlink:href="#DejaVuSans-2e"/>
       <use x="95.410156" xlink:href="#DejaVuSans-30"/>
      </g>
     </g>
    </g>
    <g id="ytick_2">
     <g id="line2d_13">
      <path clip-path="url(#p94987b371c)" d="M 54 176.26055 
L 388.8 176.26055 
" style="fill:none;stroke:#b0b0b0;stroke-linecap:square;stroke-width:0.8;"/>
     </g>
     <g id="line2d_14">
      <g>
       <use style="stroke:#000000;stroke-width:0.8;" x="54" xlink:href="#m4423b87bee" y="176.26055"/>
      </g>
     </g>
     <g id="text_8">
      <!-- 2.5 -->
      <g transform="translate(31.096875 180.059768)scale(0.1 -0.1)">
       <use xlink:href="#DejaVuSans-32"/>
       <use x="63.623047" xlink:href="#DejaVuSans-2e"/>
       <use x="95.410156" xlink:href="#DejaVuSans-35"/>
      </g>
     </g>
    </g>
    <g id="ytick_3">
     <g id="line2d_15">
      <path clip-path="url(#p94987b371c)" d="M 54 132.321579 
L 388.8 132.321579 
" style="fill:none;stroke:#b0b0b0;stroke-linecap:square;stroke-width:0.8;"/>
     </g>
     <g id="line2d_16">
      <g>
       <use style="stroke:#000000;stroke-width:0.8;" x="54" xlink:href="#m4423b87bee" y="132.321579"/>
      </g>
     </g>
     <g id="text_9">
      <!-- 3.0 -->
      <defs>
       <path d="M 40.578125 39.3125 
Q 47.65625 37.796875 51.625 33 
Q 55.609375 28.21875 55.609375 21.1875 
Q 55.609375 10.40625 48.1875 4.484375 
Q 40.765625 -1.421875 27.09375 -1.421875 
Q 22.515625 -1.421875 17.65625 -0.515625 
Q 12.796875 0.390625 7.625 2.203125 
L 7.625 11.71875 
Q 11.71875 9.328125 16.59375 8.109375 
Q 21.484375 6.890625 26.8125 6.890625 
Q 36.078125 6.890625 40.9375 10.546875 
Q 45.796875 14.203125 45.796875 21.1875 
Q 45.796875 27.640625 41.28125 31.265625 
Q 36.765625 34.90625 28.71875 34.90625 
L 20.21875 34.90625 
L 20.21875 43.015625 
L 29.109375 43.015625 
Q 36.375 43.015625 40.234375 45.921875 
Q 44.09375 48.828125 44.09375 54.296875 
Q 44.09375 59.90625 40.109375 62.90625 
Q 36.140625 65.921875 28.71875 65.921875 
Q 24.65625 65.921875 20.015625 65.03125 
Q 15.375 64.15625 9.8125 62.3125 
L 9.8125 71.09375 
Q 15.4375 72.65625 20.34375 73.4375 
Q 25.25 74.21875 29.59375 74.21875 
Q 40.828125 74.21875 47.359375 69.109375 
Q 53.90625 64.015625 53.90625 55.328125 
Q 53.90625 49.265625 50.4375 45.09375 
Q 46.96875 40.921875 40.578125 39.3125 
z
" id="DejaVuSans-33"/>
      </defs>
      <g transform="translate(31.096875 136.120797)scale(0.1 -0.1)">
       <use xlink:href="#DejaVuSans-33"/>
       <use x="63.623047" xlink:href="#DejaVuSans-2e"/>
       <use x="95.410156" xlink:href="#DejaVuSans-30"/>
      </g>
     </g>
    </g>
    <g id="ytick_4">
     <g id="line2d_17">
      <path clip-path="url(#p94987b371c)" d="M 54 88.382607 
L 388.8 88.382607 
" style="fill:none;stroke:#b0b0b0;stroke-linecap:square;stroke-width:0.8;"/>
     </g>
     <g id="line2d_18">
      <g>
       <use style="stroke:#000000;stroke-width:0.8;" x="54" xlink:href="#m4423b87bee" y="88.382607"/>
      </g>
     </g>
     <g id="text_10">
      <!-- 3.5 -->
      <g transform="translate(31.096875 92.181826)scale(0.1 -0.1)">
       <use xlink:href="#DejaVuSans-33"/>
       <use x="63.623047" xlink:href="#DejaVuSans-2e"/>
       <use x="95.410156" xlink:href="#DejaVuSans-35"/>
      </g>
     </g>
    </g>
    <g id="ytick_5">
     <g id="line2d_19">
      <path clip-path="url(#p94987b371c)" d="M 54 44.443636 
L 388.8 44.443636 
" style="fill:none;stroke:#b0b0b0;stroke-linecap:square;stroke-width:0.8;"/>
     </g>
     <g id="line2d_20">
      <g>
       <use style="stroke:#000000;stroke-width:0.8;" x="54" xlink:href="#m4423b87bee" y="44.443636"/>
      </g>
     </g>
     <g id="text_11">
      <!-- 4.0 -->
      <defs>
       <path d="M 37.796875 64.3125 
L 12.890625 25.390625 
L 37.796875 25.390625 
z
M 35.203125 72.90625 
L 47.609375 72.90625 
L 47.609375 25.390625 
L 58.015625 25.390625 
L 58.015625 17.1875 
L 47.609375 17.1875 
L 47.609375 0 
L 37.796875 0 
L 37.796875 17.1875 
L 4.890625 17.1875 
L 4.890625 26.703125 
z
" id="DejaVuSans-34"/>
      </defs>
      <g transform="translate(31.096875 48.242855)scale(0.1 -0.1)">
       <use xlink:href="#DejaVuSans-34"/>
       <use x="63.623047" xlink:href="#DejaVuSans-2e"/>
       <use x="95.410156" xlink:href="#DejaVuSans-30"/>
      </g>
     </g>
    </g>
    <g id="text_12">
     <!-- Fitness -->
     <defs>
      <path d="M 9.8125 72.90625 
L 51.703125 72.90625 
L 51.703125 64.59375 
L 19.671875 64.59375 
L 19.671875 43.109375 
L 48.578125 43.109375 
L 48.578125 34.8125 
L 19.671875 34.8125 
L 19.671875 0 
L 9.8125 0 
z
" id="DejaVuSans-46"/>
     </defs>
     <g transform="translate(25.017187 160.954219)rotate(-90)scale(0.1 -0.1)">
      <use xlink:href="#DejaVuSans-46"/>
      <use x="57.410156" xlink:href="#DejaVuSans-69"/>
      <use x="85.193359" xlink:href="#DejaVuSans-74"/>
      <use x="124.402344" xlink:href="#DejaVuSans-6e"/>
      <use x="187.78125" xlink:href="#DejaVuSans-65"/>
      <use x="249.304688" xlink:href="#DejaVuSans-73"/>
      <use x="301.404297" xlink:href="#DejaVuSans-73"/>
     </g>
    </g>
   </g>
   <g id="line2d_21">
    <path clip-path="url(#p94987b371c)" d="M 69.218182 197.100664 
L 70.681469 189.568822 
L 72.144755 192.777683 
L 73.608042 193.135224 
L 75.071329 185.494502 
L 76.534615 187.277761 
L 77.997902 183.85001 
L 79.461189 187.217341 
L 80.924476 190.296432 
L 82.387762 186.792842 
L 83.851049 189.527962 
L 85.314336 181.909026 
L 86.777622 185.811897 
L 88.240909 185.392229 
L 89.704196 190.109955 
L 91.167483 188.757254 
L 92.630769 182.499868 
L 94.094056 191.784202 
L 95.557343 186.555597 
L 97.020629 188.494931 
L 98.483916 183.757865 
L 99.947203 185.119587 
L 101.41049 187.146864 
L 102.873776 190.481026 
L 104.337063 185.868245 
L 105.80035 192.997807 
L 107.263636 188.600788 
L 108.726923 193.700603 
L 110.19021 195.811256 
L 111.653497 191.311347 
L 113.116783 190.84104 
L 114.58007 190.80907 
L 116.043357 186.056497 
L 117.506643 190.200169 
L 118.96993 189.365876 
L 120.433217 187.873225 
L 121.896503 191.611579 
L 123.35979 190.679735 
L 124.823077 189.412465 
L 126.286364 186.010456 
L 127.74965 192.394324 
L 129.212937 190.966247 
L 130.676224 193.774599 
L 132.13951 191.21936 
L 133.602797 186.56988 
L 135.066084 196.084207 
L 136.529371 191.216948 
L 137.992657 191.945407 
L 139.455944 182.188446 
L 140.919231 187.141807 
L 142.382517 190.463823 
L 143.845804 183.97343 
L 145.309091 186.071002 
L 146.772378 190.468761 
L 148.235664 184.088858 
L 149.698951 186.135177 
L 151.162238 186.013979 
L 152.625524 178.346087 
L 154.088811 187.356437 
L 155.552098 185.478776 
L 157.015385 189.362147 
L 158.478671 186.784924 
L 159.941958 183.111402 
L 161.405245 187.070602 
L 162.868531 185.964875 
L 164.331818 173.218592 
L 165.795105 178.697392 
L 167.258392 179.984756 
L 168.721678 189.119177 
L 170.184965 183.42466 
L 171.648252 183.366058 
L 173.111538 176.801551 
L 174.574825 184.123829 
L 176.038112 177.575559 
L 177.501399 185.193414 
L 178.964685 180.762349 
L 180.427972 180.313806 
L 181.891259 177.399225 
L 183.354545 176.695773 
L 184.817832 179.237738 
L 186.281119 178.821064 
L 187.744406 171.041053 
L 189.207692 172.737356 
L 190.670979 173.23677 
L 192.134266 180.241351 
L 193.597552 183.986307 
L 195.060839 179.830218 
L 196.524126 173.006655 
L 197.987413 176.091652 
L 199.450699 182.307378 
L 200.913986 178.371237 
L 202.377273 178.019682 
L 203.840559 180.560779 
L 205.303846 176.97218 
L 206.767133 182.455403 
L 208.23042 178.322647 
L 209.693706 169.809219 
L 211.156993 172.473917 
L 212.62028 173.487694 
L 214.083566 179.625671 
L 215.546853 178.283343 
L 217.01014 182.946993 
L 218.473427 187.002863 
L 219.936713 175.890808 
L 221.4 179.228146 
L 222.863287 166.213021 
L 224.326573 177.471539 
L 225.78986 171.916077 
L 227.253147 159.012576 
L 228.716434 167.187822 
L 230.17972 152.563019 
L 231.643007 155.56927 
L 233.106294 157.514531 
L 234.56958 156.282874 
L 236.032867 151.841041 
L 237.496154 158.520919 
L 238.959441 165.950506 
L 240.422727 158.373231 
L 241.886014 150.074098 
L 243.349301 137.907386 
L 244.812587 133.174561 
L 246.275874 130.69055 
L 247.739161 146.822781 
L 250.665734 140.610969 
L 252.129021 151.161675 
L 253.592308 144.759991 
L 255.055594 148.530048 
L 256.518881 143.223914 
L 257.982168 140.165289 
L 259.445455 145.010575 
L 260.908741 143.326204 
L 262.372028 137.334778 
L 263.835315 138.287082 
L 265.298601 135.062887 
L 266.761888 142.144295 
L 268.225175 153.30057 
L 269.688462 142.018538 
L 271.151748 151.550591 
L 272.615035 144.940263 
L 274.078322 142.340247 
L 275.541608 148.364508 
L 277.004895 134.119258 
L 278.468182 132.986836 
L 279.931469 142.283094 
L 281.394755 144.412933 
L 282.858042 136.021469 
L 284.321329 142.343904 
L 285.784615 150.192853 
L 287.247902 143.875817 
L 288.711189 134.961964 
L 290.174476 145.374982 
L 291.637762 154.876153 
L 293.101049 135.336109 
L 294.564336 148.456253 
L 296.027622 145.322465 
L 297.490909 142.807167 
L 298.954196 135.213932 
L 300.417483 137.836494 
L 301.880769 143.480066 
L 303.344056 134.309026 
L 304.807343 144.512233 
L 306.270629 141.877082 
L 307.733916 137.429686 
L 309.197203 139.256411 
L 310.66049 141.517893 
L 312.123776 141.377861 
L 313.587063 137.648815 
L 315.05035 149.147622 
L 316.513636 146.573301 
L 317.976923 159.721948 
L 319.44021 142.120968 
L 320.903497 147.352656 
L 322.366783 136.983614 
L 323.83007 142.839117 
L 325.293357 139.989743 
L 326.756643 132.437087 
L 328.21993 151.626447 
L 329.683217 151.648893 
L 331.146503 136.848254 
L 332.60979 145.63932 
L 334.073077 142.9824 
L 335.536364 133.002327 
L 336.99965 145.933157 
L 338.462937 143.967512 
L 339.926224 136.028078 
L 341.38951 145.657056 
L 342.852797 149.794549 
L 344.316084 157.190896 
L 345.779371 152.154963 
L 347.242657 153.07192 
L 348.705944 153.539209 
L 350.169231 147.733045 
L 351.632517 145.253008 
L 353.095804 151.947754 
L 354.559091 149.17291 
L 356.022378 145.598429 
L 357.485664 152.128278 
L 358.948951 154.88491 
L 360.412238 155.249581 
L 361.875524 154.84285 
L 363.338811 150.428412 
L 364.802098 150.501902 
L 366.265385 157.713108 
L 367.728671 151.968416 
L 369.191958 153.250371 
L 370.655245 157.109534 
L 372.118531 144.16496 
L 373.581818 145.640807 
L 373.581818 145.640807 
" style="fill:none;stroke:#0000ff;stroke-linecap:square;stroke-width:1.5;"/>
   </g>
   <g id="line2d_22">
    <path clip-path="url(#p94987b371c)" d="M 69.218182 230.617159 
L 70.681469 217.783339 
L 72.144755 222.507232 
L 73.608042 224.678082 
L 75.071329 218.209396 
L 76.534615 219.597027 
L 77.997902 217.802017 
L 79.461189 220.898859 
L 80.924476 224.849786 
L 82.387762 222.709259 
L 83.851049 225.41287 
L 85.314336 219.773557 
L 86.777622 225.756432 
L 88.240909 225.066829 
L 89.704196 228.681183 
L 91.167483 228.506051 
L 92.630769 222.195488 
L 94.094056 231.600994 
L 95.557343 226.191118 
L 97.020629 227.961874 
L 98.483916 223.545397 
L 99.947203 228.819397 
L 101.41049 230.394648 
L 102.873776 231.626182 
L 104.337063 229.190931 
L 105.80035 235.614049 
L 107.263636 230.578235 
L 108.726923 233.761561 
L 110.19021 237.304786 
L 111.653497 230.589627 
L 114.58007 232.534128 
L 116.043357 229.563933 
L 117.506643 233.672111 
L 118.96993 230.196242 
L 120.433217 229.904312 
L 121.896503 237.520243 
L 123.35979 235.523091 
L 124.823077 232.524959 
L 126.286364 231.274063 
L 127.74965 232.202779 
L 129.212937 235.55096 
L 130.676224 237.723643 
L 132.13951 237.060391 
L 133.602797 233.990404 
L 135.066084 239.397959 
L 136.529371 238.993933 
L 137.992657 233.668193 
L 139.455944 229.771318 
L 140.919231 234.719681 
L 142.382517 237.12925 
L 143.845804 231.346483 
L 145.309091 232.678377 
L 146.772378 231.26243 
L 148.235664 231.953678 
L 149.698951 235.40154 
L 151.162238 234.785429 
L 152.625524 227.378333 
L 154.088811 233.561522 
L 155.552098 227.509719 
L 157.015385 238.229667 
L 159.941958 231.024608 
L 161.405245 234.209634 
L 162.868531 231.783848 
L 164.331818 224.422064 
L 167.258392 229.121348 
L 168.721678 233.615375 
L 170.184965 229.428601 
L 171.648252 231.36404 
L 173.111538 225.667845 
L 174.574825 232.769629 
L 176.038112 227.866144 
L 177.501399 233.304242 
L 178.964685 232.136551 
L 180.427972 230.158852 
L 181.891259 227.061119 
L 183.354545 226.680403 
L 184.817832 229.993694 
L 186.281119 230.753979 
L 187.744406 227.003986 
L 189.207692 224.4123 
L 190.670979 223.39029 
L 192.134266 227.8402 
L 193.597552 231.286093 
L 196.524126 220.047509 
L 197.987413 226.248191 
L 199.450699 234.030182 
L 202.377273 226.779633 
L 203.840559 230.320019 
L 205.303846 231.482106 
L 206.767133 233.409567 
L 208.23042 234.1513 
L 209.693706 228.032377 
L 211.156993 227.995362 
L 212.62028 227.291598 
L 214.083566 229.171195 
L 215.546853 230.494605 
L 217.01014 234.649885 
L 218.473427 242.116364 
L 219.936713 229.022154 
L 221.4 233.927956 
L 222.863287 221.116752 
L 224.326573 235.027987 
L 225.78986 231.858771 
L 227.253147 225.74083 
L 228.716434 227.358624 
L 230.17972 216.52431 
L 231.643007 221.622802 
L 233.106294 223.15322 
L 234.56958 218.238108 
L 236.032867 217.717324 
L 237.496154 222.47556 
L 238.959441 233.769688 
L 240.422727 229.907688 
L 241.886014 220.600069 
L 243.349301 209.330163 
L 244.812587 203.591346 
L 246.275874 195.332667 
L 247.739161 216.803495 
L 249.202448 212.937836 
L 250.665734 211.219565 
L 252.129021 223.609648 
L 253.592308 216.648329 
L 255.055594 216.909864 
L 257.982168 209.55831 
L 259.445455 216.450553 
L 260.908741 214.124695 
L 262.372028 208.803486 
L 263.835315 215.601928 
L 265.298601 206.45544 
L 266.761888 210.016112 
L 268.225175 219.657731 
L 269.688462 214.535149 
L 271.151748 225.240732 
L 272.615035 212.128929 
L 274.078322 215.638978 
L 275.541608 216.813216 
L 277.004895 201.757247 
L 278.468182 205.32281 
L 279.931469 213.590988 
L 281.394755 218.694526 
L 282.858042 206.392234 
L 284.321329 213.859708 
L 285.784615 224.226232 
L 287.247902 213.467363 
L 288.711189 203.871373 
L 291.637762 226.368909 
L 293.101049 201.397094 
L 294.564336 216.752289 
L 296.027622 213.221917 
L 297.490909 215.916212 
L 298.954196 204.947966 
L 300.417483 212.02983 
L 301.880769 215.974675 
L 303.344056 206.873542 
L 304.807343 216.493869 
L 306.270629 213.311015 
L 307.733916 210.990414 
L 310.66049 209.543308 
L 312.123776 218.790809 
L 313.587063 207.504545 
L 315.05035 218.311796 
L 316.513636 219.269013 
L 317.976923 229.03525 
L 319.44021 208.786813 
L 320.903497 221.814561 
L 322.366783 204.52281 
L 323.83007 211.935183 
L 326.756643 206.620167 
L 328.21993 220.808203 
L 329.683217 223.806284 
L 331.146503 208.53796 
L 332.60979 214.794463 
L 335.536364 205.413746 
L 336.99965 220.937547 
L 338.462937 218.621645 
L 339.926224 204.279138 
L 341.38951 216.648889 
L 344.316084 228.682781 
L 345.779371 222.272076 
L 347.242657 226.343944 
L 348.705944 221.536377 
L 350.169231 215.15049 
L 351.632517 214.215574 
L 353.095804 221.522015 
L 354.559091 221.844026 
L 356.022378 215.537515 
L 357.485664 221.670575 
L 358.948951 225.86193 
L 360.412238 229.557359 
L 361.875524 224.338414 
L 363.338811 218.500961 
L 364.802098 220.743154 
L 366.265385 223.572121 
L 367.728671 222.563358 
L 369.191958 223.166631 
L 370.655245 226.435215 
L 372.118531 216.063947 
L 373.581818 220.646059 
L 373.581818 220.646059 
" style="fill:none;stroke:#008000;stroke-dasharray:9.6,2.4,1.5,2.4;stroke-dashoffset:0;stroke-width:1.5;"/>
   </g>
   <g id="line2d_23">
    <path clip-path="url(#p94987b371c)" d="M 69.218182 163.584169 
L 70.681469 161.354306 
L 72.144755 163.048133 
L 73.608042 161.592365 
L 75.071329 152.779607 
L 76.534615 154.958495 
L 77.997902 149.898003 
L 79.461189 153.535822 
L 80.924476 155.743078 
L 82.387762 150.876424 
L 83.851049 153.643055 
L 85.314336 144.044495 
L 86.777622 145.867363 
L 88.240909 145.717629 
L 89.704196 151.538727 
L 91.167483 149.008457 
L 92.630769 142.804249 
L 94.094056 151.967411 
L 95.557343 146.920076 
L 97.020629 149.027988 
L 98.483916 143.970334 
L 99.947203 141.419778 
L 101.41049 143.899079 
L 102.873776 149.33587 
L 104.337063 142.54556 
L 105.80035 150.381565 
L 107.263636 146.62334 
L 108.726923 153.639644 
L 110.19021 154.317727 
L 111.653497 152.033067 
L 113.116783 150.05608 
L 114.58007 149.084012 
L 116.043357 142.54906 
L 117.506643 146.728227 
L 118.96993 148.53551 
L 120.433217 145.842139 
L 121.896503 145.702916 
L 123.35979 145.836378 
L 124.823077 146.299972 
L 126.286364 140.74685 
L 127.74965 152.585869 
L 129.212937 146.381535 
L 130.676224 149.825555 
L 132.13951 145.37833 
L 133.602797 139.149355 
L 135.066084 152.770456 
L 136.529371 143.439963 
L 137.992657 150.222622 
L 139.455944 134.605574 
L 140.919231 139.563933 
L 142.382517 143.798397 
L 143.845804 136.600376 
L 145.309091 139.463627 
L 146.772378 149.675091 
L 148.235664 136.224038 
L 149.698951 136.868813 
L 151.162238 137.24253 
L 152.625524 129.313842 
L 154.088811 141.151351 
L 155.552098 143.447833 
L 157.015385 140.494627 
L 158.478671 138.998936 
L 159.941958 135.198197 
L 161.405245 139.931569 
L 162.868531 140.145902 
L 164.331818 122.01512 
L 165.795105 130.580093 
L 167.258392 130.848165 
L 168.721678 144.62298 
L 170.184965 137.420719 
L 171.648252 135.368077 
L 173.111538 127.935258 
L 174.574825 135.478029 
L 176.038112 127.284975 
L 177.501399 137.082585 
L 178.964685 129.388148 
L 180.427972 130.46876 
L 181.891259 127.737331 
L 183.354545 126.711142 
L 184.817832 128.481783 
L 186.281119 126.88815 
L 187.744406 115.078121 
L 189.207692 121.062411 
L 190.670979 123.08325 
L 192.134266 132.642502 
L 193.597552 136.686521 
L 195.060839 133.909314 
L 196.524126 125.965802 
L 197.987413 125.935114 
L 199.450699 130.584574 
L 200.913986 126.328891 
L 202.377273 129.259731 
L 203.840559 130.801539 
L 205.303846 122.462254 
L 206.767133 131.501238 
L 208.23042 122.493994 
L 209.693706 111.586062 
L 211.156993 116.952473 
L 212.62028 119.68379 
L 214.083566 130.080147 
L 215.546853 126.072081 
L 217.01014 131.244102 
L 218.473427 131.889362 
L 219.936713 122.759461 
L 221.4 124.528337 
L 222.863287 111.309291 
L 224.326573 119.915092 
L 225.78986 111.973383 
L 227.253147 92.284321 
L 228.716434 107.01702 
L 230.17972 88.601728 
L 231.643007 89.515739 
L 234.56958 94.32764 
L 236.032867 85.964757 
L 237.496154 94.566278 
L 238.959441 98.131325 
L 240.422727 86.838774 
L 241.886014 79.548127 
L 243.349301 66.484608 
L 244.812587 62.757776 
L 246.275874 66.048432 
L 247.739161 76.842066 
L 249.202448 74.379077 
L 250.665734 70.002374 
L 252.129021 78.713701 
L 253.592308 72.871654 
L 255.055594 80.150232 
L 256.518881 73.075862 
L 257.982168 70.772267 
L 259.445455 73.570597 
L 260.908741 72.527713 
L 262.372028 65.86607 
L 263.835315 60.972236 
L 265.298601 63.670334 
L 266.761888 74.272477 
L 268.225175 86.943409 
L 269.688462 69.501927 
L 271.151748 77.860449 
L 272.615035 77.751598 
L 274.078322 69.041517 
L 275.541608 79.9158 
L 277.004895 66.48127 
L 278.468182 60.650862 
L 279.931469 70.975199 
L 281.394755 70.131341 
L 282.858042 65.650704 
L 285.784615 76.159474 
L 287.247902 74.284272 
L 288.711189 66.052555 
L 290.174476 75.962406 
L 291.637762 83.383398 
L 293.101049 69.275124 
L 294.564336 80.160216 
L 296.027622 77.423012 
L 297.490909 69.698121 
L 298.954196 65.479898 
L 300.417483 63.643159 
L 301.880769 70.985458 
L 303.344056 61.74451 
L 304.807343 72.530598 
L 306.270629 70.44315 
L 307.733916 63.868958 
L 309.197203 68.199873 
L 310.66049 73.492478 
L 312.123776 63.964913 
L 313.587063 67.793085 
L 315.05035 79.983449 
L 316.513636 73.87759 
L 317.976923 90.408647 
L 319.44021 75.455123 
L 320.903497 72.890751 
L 322.366783 69.444417 
L 323.83007 73.74305 
L 325.293357 70.780677 
L 326.756643 58.254007 
L 328.21993 82.444691 
L 329.683217 79.491503 
L 331.146503 65.158549 
L 332.60979 76.484176 
L 334.073077 75.80693 
L 335.536364 60.590908 
L 336.99965 70.928766 
L 339.926224 67.777017 
L 341.38951 74.665224 
L 342.852797 76.787486 
L 344.316084 85.69901 
L 345.779371 82.037851 
L 347.242657 79.799895 
L 348.705944 85.542041 
L 350.169231 80.315601 
L 351.632517 76.290442 
L 353.095804 82.373492 
L 354.559091 76.501793 
L 356.022378 75.659342 
L 357.485664 82.58598 
L 358.948951 83.907891 
L 360.412238 80.941803 
L 361.875524 85.347286 
L 363.338811 82.355862 
L 364.802098 80.26065 
L 366.265385 91.854095 
L 367.728671 81.373473 
L 369.191958 83.334111 
L 370.655245 87.783854 
L 372.118531 72.265974 
L 373.581818 70.635556 
L 373.581818 70.635556 
" style="fill:none;stroke:#008000;stroke-dasharray:9.6,2.4,1.5,2.4;stroke-dashoffset:0;stroke-width:1.5;"/>
   </g>
   <g id="line2d_24">
    <path clip-path="url(#p94987b371c)" d="M 69.218182 132.474373 
L 75.071329 132.323159 
L 83.851049 132.246432 
L 85.314336 131.161023 
L 86.777622 123.699092 
L 88.240909 123.699092 
L 89.704196 88.854722 
L 97.020629 88.854722 
L 98.483916 56.662717 
L 114.58007 56.662717 
L 116.043357 48.78095 
L 127.74965 48.78095 
L 129.212937 48.315716 
L 130.676224 48.315716 
L 132.13951 45.333989 
L 133.602797 44.857835 
L 149.698951 44.857835 
L 151.162238 44.521866 
L 189.207692 44.446679 
L 190.670979 47.551417 
L 192.134266 44.726214 
L 206.767133 44.615104 
L 209.693706 44.459319 
L 373.581818 44.443636 
L 373.581818 44.443636 
" style="fill:none;stroke:#ff0000;stroke-linecap:square;stroke-width:1.5;"/>
   </g>
   <g id="patch_3">
    <path d="M 54 252 
L 54 34.56 
" style="fill:none;stroke:#000000;stroke-linecap:square;stroke-linejoin:miter;stroke-width:0.8;"/>
   </g>
   <g id="patch_4">
    <path d="M 388.8 252 
L 388.8 34.56 
" style="fill:none;stroke:#000000;stroke-linecap:square;stroke-linejoin:miter;stroke-width:0.8;"/>
   </g>
   <g id="patch_5">
    <path d="M 54 252 
L 388.8 252 
" style="fill:none;stroke:#000000;stroke-linecap:square;stroke-linejoin:miter;stroke-width:0.8;"/>
   </g>
   <g id="patch_6">
    <path d="M 54 34.56 
L 388.8 34.56 
" style="fill:none;stroke:#000000;stroke-linecap:square;stroke-linejoin:miter;stroke-width:0.8;"/>
   </g>
   <g id="text_13">
    <!-- Population's average and best fitness -->
    <defs>
     <path d="M 19.671875 64.796875 
L 19.671875 37.40625 
L 32.078125 37.40625 
Q 38.96875 37.40625 42.71875 40.96875 
Q 46.484375 44.53125 46.484375 51.125 
Q 46.484375 57.671875 42.71875 61.234375 
Q 38.96875 64.796875 32.078125 64.796875 
z
M 9.8125 72.90625 
L 32.078125 72.90625 
Q 44.34375 72.90625 50.609375 67.359375 
Q 56.890625 61.8125 56.890625 51.125 
Q 56.890625 40.328125 50.609375 34.8125 
Q 44.34375 29.296875 32.078125 29.296875 
L 19.671875 29.296875 
L 19.671875 0 
L 9.8125 0 
z
" id="DejaVuSans-50"/>
     <path d="M 18.109375 8.203125 
L 18.109375 -20.796875 
L 9.078125 -20.796875 
L 9.078125 54.6875 
L 18.109375 54.6875 
L 18.109375 46.390625 
Q 20.953125 51.265625 25.265625 53.625 
Q 29.59375 56 35.59375 56 
Q 45.5625 56 51.78125 48.09375 
Q 58.015625 40.1875 58.015625 27.296875 
Q 58.015625 14.40625 51.78125 6.484375 
Q 45.5625 -1.421875 35.59375 -1.421875 
Q 29.59375 -1.421875 25.265625 0.953125 
Q 20.953125 3.328125 18.109375 8.203125 
z
M 48.6875 27.296875 
Q 48.6875 37.203125 44.609375 42.84375 
Q 40.53125 48.484375 33.40625 48.484375 
Q 26.265625 48.484375 22.1875 42.84375 
Q 18.109375 37.203125 18.109375 27.296875 
Q 18.109375 17.390625 22.1875 11.75 
Q 26.265625 6.109375 33.40625 6.109375 
Q 40.53125 6.109375 44.609375 11.75 
Q 48.6875 17.390625 48.6875 27.296875 
z
" id="DejaVuSans-70"/>
     <path d="M 8.5 21.578125 
L 8.5 54.6875 
L 17.484375 54.6875 
L 17.484375 21.921875 
Q 17.484375 14.15625 20.5 10.265625 
Q 23.53125 6.390625 29.59375 6.390625 
Q 36.859375 6.390625 41.078125 11.03125 
Q 45.3125 15.671875 45.3125 23.6875 
L 45.3125 54.6875 
L 54.296875 54.6875 
L 54.296875 0 
L 45.3125 0 
L 45.3125 8.40625 
Q 42.046875 3.421875 37.71875 1 
Q 33.40625 -1.421875 27.6875 -1.421875 
Q 18.265625 -1.421875 13.375 4.4375 
Q 8.5 10.296875 8.5 21.578125 
z
M 31.109375 56 
z
" id="DejaVuSans-75"/>
     <path d="M 9.421875 75.984375 
L 18.40625 75.984375 
L 18.40625 0 
L 9.421875 0 
z
" id="DejaVuSans-6c"/>
     <path d="M 17.921875 72.90625 
L 17.921875 45.796875 
L 9.625 45.796875 
L 9.625 72.90625 
z
" id="DejaVuSans-27"/>
     <path id="DejaVuSans-20"/>
     <path d="M 2.984375 54.6875 
L 12.5 54.6875 
L 29.59375 8.796875 
L 46.6875 54.6875 
L 56.203125 54.6875 
L 35.6875 0 
L 23.484375 0 
z
" id="DejaVuSans-76"/>
     <path d="M 45.40625 27.984375 
Q 45.40625 37.75 41.375 43.109375 
Q 37.359375 48.484375 30.078125 48.484375 
Q 22.859375 48.484375 18.828125 43.109375 
Q 14.796875 37.75 14.796875 27.984375 
Q 14.796875 18.265625 18.828125 12.890625 
Q 22.859375 7.515625 30.078125 7.515625 
Q 37.359375 7.515625 41.375 12.890625 
Q 45.40625 18.265625 45.40625 27.984375 
z
M 54.390625 6.78125 
Q 54.390625 -7.171875 48.1875 -13.984375 
Q 42 -20.796875 29.203125 -20.796875 
Q 24.46875 -20.796875 20.265625 -20.09375 
Q 16.0625 -19.390625 12.109375 -17.921875 
L 12.109375 -9.1875 
Q 16.0625 -11.328125 19.921875 -12.34375 
Q 23.78125 -13.375 27.78125 -13.375 
Q 36.625 -13.375 41.015625 -8.765625 
Q 45.40625 -4.15625 45.40625 5.171875 
L 45.40625 9.625 
Q 42.625 4.78125 38.28125 2.390625 
Q 33.9375 0 27.875 0 
Q 17.828125 0 11.671875 7.65625 
Q 5.515625 15.328125 5.515625 27.984375 
Q 5.515625 40.671875 11.671875 48.328125 
Q 17.828125 56 27.875 56 
Q 33.9375 56 38.28125 53.609375 
Q 42.625 51.21875 45.40625 46.390625 
L 45.40625 54.6875 
L 54.390625 54.6875 
z
" id="DejaVuSans-67"/>
     <path d="M 45.40625 46.390625 
L 45.40625 75.984375 
L 54.390625 75.984375 
L 54.390625 0 
L 45.40625 0 
L 45.40625 8.203125 
Q 42.578125 3.328125 38.25 0.953125 
Q 33.9375 -1.421875 27.875 -1.421875 
Q 17.96875 -1.421875 11.734375 6.484375 
Q 5.515625 14.40625 5.515625 27.296875 
Q 5.515625 40.1875 11.734375 48.09375 
Q 17.96875 56 27.875 56 
Q 33.9375 56 38.25 53.625 
Q 42.578125 51.265625 45.40625 46.390625 
z
M 14.796875 27.296875 
Q 14.796875 17.390625 18.875 11.75 
Q 22.953125 6.109375 30.078125 6.109375 
Q 37.203125 6.109375 41.296875 11.75 
Q 45.40625 17.390625 45.40625 27.296875 
Q 45.40625 37.203125 41.296875 42.84375 
Q 37.203125 48.484375 30.078125 48.484375 
Q 22.953125 48.484375 18.875 42.84375 
Q 14.796875 37.203125 14.796875 27.296875 
z
" id="DejaVuSans-64"/>
     <path d="M 48.6875 27.296875 
Q 48.6875 37.203125 44.609375 42.84375 
Q 40.53125 48.484375 33.40625 48.484375 
Q 26.265625 48.484375 22.1875 42.84375 
Q 18.109375 37.203125 18.109375 27.296875 
Q 18.109375 17.390625 22.1875 11.75 
Q 26.265625 6.109375 33.40625 6.109375 
Q 40.53125 6.109375 44.609375 11.75 
Q 48.6875 17.390625 48.6875 27.296875 
z
M 18.109375 46.390625 
Q 20.953125 51.265625 25.265625 53.625 
Q 29.59375 56 35.59375 56 
Q 45.5625 56 51.78125 48.09375 
Q 58.015625 40.1875 58.015625 27.296875 
Q 58.015625 14.40625 51.78125 6.484375 
Q 45.5625 -1.421875 35.59375 -1.421875 
Q 29.59375 -1.421875 25.265625 0.953125 
Q 20.953125 3.328125 18.109375 8.203125 
L 18.109375 0 
L 9.078125 0 
L 9.078125 75.984375 
L 18.109375 75.984375 
z
" id="DejaVuSans-62"/>
     <path d="M 37.109375 75.984375 
L 37.109375 68.5 
L 28.515625 68.5 
Q 23.6875 68.5 21.796875 66.546875 
Q 19.921875 64.59375 19.921875 59.515625 
L 19.921875 54.6875 
L 34.71875 54.6875 
L 34.71875 47.703125 
L 19.921875 47.703125 
L 19.921875 0 
L 10.890625 0 
L 10.890625 47.703125 
L 2.296875 47.703125 
L 2.296875 54.6875 
L 10.890625 54.6875 
L 10.890625 58.5 
Q 10.890625 67.625 15.140625 71.796875 
Q 19.390625 75.984375 28.609375 75.984375 
z
" id="DejaVuSans-66"/>
    </defs>
    <g transform="translate(108.555 28.56)scale(0.12 -0.12)">
     <use xlink:href="#DejaVuSans-50"/>
     <use x="60.255859" xlink:href="#DejaVuSans-6f"/>
     <use x="121.4375" xlink:href="#DejaVuSans-70"/>
     <use x="184.914062" xlink:href="#DejaVuSans-75"/>
     <use x="248.292969" xlink:href="#DejaVuSans-6c"/>
     <use x="276.076172" xlink:href="#DejaVuSans-61"/>
     <use x="337.355469" xlink:href="#DejaVuSans-74"/>
     <use x="376.564453" xlink:href="#DejaVuSans-69"/>
     <use x="404.347656" xlink:href="#DejaVuSans-6f"/>
     <use x="465.529297" xlink:href="#DejaVuSans-6e"/>
     <use x="528.908203" xlink:href="#DejaVuSans-27"/>
     <use x="556.398438" xlink:href="#DejaVuSans-73"/>
     <use x="608.498047" xlink:href="#DejaVuSans-20"/>
     <use x="640.285156" xlink:href="#DejaVuSans-61"/>
     <use x="701.564453" xlink:href="#DejaVuSans-76"/>
     <use x="760.744141" xlink:href="#DejaVuSans-65"/>
     <use x="822.267578" xlink:href="#DejaVuSans-72"/>
     <use x="863.380859" xlink:href="#DejaVuSans-61"/>
     <use x="924.660156" xlink:href="#DejaVuSans-67"/>
     <use x="988.136719" xlink:href="#DejaVuSans-65"/>
     <use x="1049.660156" xlink:href="#DejaVuSans-20"/>
     <use x="1081.447266" xlink:href="#DejaVuSans-61"/>
     <use x="1142.726562" xlink:href="#DejaVuSans-6e"/>
     <use x="1206.105469" xlink:href="#DejaVuSans-64"/>
     <use x="1269.582031" xlink:href="#DejaVuSans-20"/>
     <use x="1301.369141" xlink:href="#DejaVuSans-62"/>
     <use x="1364.845703" xlink:href="#DejaVuSans-65"/>
     <use x="1426.369141" xlink:href="#DejaVuSans-73"/>
     <use x="1478.46875" xlink:href="#DejaVuSans-74"/>
     <use x="1517.677734" xlink:href="#DejaVuSans-20"/>
     <use x="1549.464844" xlink:href="#DejaVuSans-66"/>
     <use x="1584.669922" xlink:href="#DejaVuSans-69"/>
     <use x="1612.453125" xlink:href="#DejaVuSans-74"/>
     <use x="1651.662109" xlink:href="#DejaVuSans-6e"/>
     <use x="1715.041016" xlink:href="#DejaVuSans-65"/>
     <use x="1776.564453" xlink:href="#DejaVuSans-73"/>
     <use x="1828.664062" xlink:href="#DejaVuSans-73"/>
    </g>
   </g>
   <g id="legend_1">
    <g id="patch_7">
     <path d="M 61 101.2725 
L 133.940625 101.2725 
Q 135.940625 101.2725 135.940625 99.2725 
L 135.940625 41.56 
Q 135.940625 39.56 133.940625 39.56 
L 61 39.56 
Q 59 39.56 59 41.56 
L 59 99.2725 
Q 59 101.2725 61 101.2725 
z
" style="fill:#ffffff;opacity:0.8;stroke:#cccccc;stroke-linejoin:miter;"/>
    </g>
    <g id="line2d_25">
     <path d="M 63 47.658437 
L 83 47.658437 
" style="fill:none;stroke:#0000ff;stroke-linecap:square;stroke-width:1.5;"/>
    </g>
    <g id="line2d_26"/>
    <g id="text_14">
     <!-- average -->
     <g transform="translate(91 51.158437)scale(0.1 -0.1)">
      <use xlink:href="#DejaVuSans-61"/>
      <use x="61.279297" xlink:href="#DejaVuSans-76"/>
      <use x="120.458984" xlink:href="#DejaVuSans-65"/>
      <use x="181.982422" xlink:href="#DejaVuSans-72"/>
      <use x="223.095703" xlink:href="#DejaVuSans-61"/>
      <use x="284.375" xlink:href="#DejaVuSans-67"/>
      <use x="347.851562" xlink:href="#DejaVuSans-65"/>
     </g>
    </g>
    <g id="line2d_27">
     <path d="M 63 62.336562 
L 83 62.336562 
" style="fill:none;stroke:#008000;stroke-dasharray:9.6,2.4,1.5,2.4;stroke-dashoffset:0;stroke-width:1.5;"/>
    </g>
    <g id="line2d_28"/>
    <g id="text_15">
     <!-- -1 sd -->
     <defs>
      <path d="M 4.890625 31.390625 
L 31.203125 31.390625 
L 31.203125 23.390625 
L 4.890625 23.390625 
z
" id="DejaVuSans-2d"/>
     </defs>
     <g transform="translate(91 65.836562)scale(0.1 -0.1)">
      <use xlink:href="#DejaVuSans-2d"/>
      <use x="36.083984" xlink:href="#DejaVuSans-31"/>
      <use x="99.707031" xlink:href="#DejaVuSans-20"/>
      <use x="131.494141" xlink:href="#DejaVuSans-73"/>
      <use x="183.59375" xlink:href="#DejaVuSans-64"/>
     </g>
    </g>
    <g id="line2d_29">
     <path d="M 63 77.014687 
L 83 77.014687 
" style="fill:none;stroke:#008000;stroke-dasharray:9.6,2.4,1.5,2.4;stroke-dashoffset:0;stroke-width:1.5;"/>
    </g>
    <g id="line2d_30"/>
    <g id="text_16">
     <!-- +1 sd -->
     <defs>
      <path d="M 46 62.703125 
L 46 35.5 
L 73.1875 35.5 
L 73.1875 27.203125 
L 46 27.203125 
L 46 0 
L 37.796875 0 
L 37.796875 27.203125 
L 10.59375 27.203125 
L 10.59375 35.5 
L 37.796875 35.5 
L 37.796875 62.703125 
z
" id="DejaVuSans-2b"/>
     </defs>
     <g transform="translate(91 80.514687)scale(0.1 -0.1)">
      <use xlink:href="#DejaVuSans-2b"/>
      <use x="83.789062" xlink:href="#DejaVuSans-31"/>
      <use x="147.412109" xlink:href="#DejaVuSans-20"/>
      <use x="179.199219" xlink:href="#DejaVuSans-73"/>
      <use x="231.298828" xlink:href="#DejaVuSans-64"/>
     </g>
    </g>
    <g id="line2d_31">
     <path d="M 63 91.692813 
L 83 91.692813 
" style="fill:none;stroke:#ff0000;stroke-linecap:square;stroke-width:1.5;"/>
    </g>
    <g id="line2d_32"/>
    <g id="text_17">
     <!-- best -->
     <g transform="translate(91 95.192813)scale(0.1 -0.1)">
      <use xlink:href="#DejaVuSans-62"/>
      <use x="63.476562" xlink:href="#DejaVuSans-65"/>
      <use x="125" xlink:href="#DejaVuSans-73"/>
      <use x="177.099609" xlink:href="#DejaVuSans-74"/>
     </g>
    </g>
   </g>
  </g>
 </g>
 <defs>
  <clipPath id="p94987b371c">
   <rect height="217.44" width="334.8" x="54" y="34.56"/>
  </clipPath>
 </defs>
</svg>
