<?xml version="1.0" encoding="UTF-8" standalone="no"?>
<!DOCTYPE svg PUBLIC "-//W3C//DTD SVG 1.1//EN"
 "http://www.w3.org/Graphics/SVG/1.1/DTD/svg11.dtd">
<!-- Generated by graphviz version 2.38.0 (20140413.2041)
 -->
<!-- Title: %3 Pages: 1 -->
<svg width="130pt" height="268pt"
 viewBox="0.00 0.00 130.33 268.35" xmlns="http://www.w3.org/2000/svg" xmlns:xlink="http://www.w3.org/1999/xlink">
<g id="graph0" class="graph" transform="scale(1 1) rotate(0) translate(4 264.35)">
<title>%3</title>
<polygon fill="white" stroke="none" points="-4,4 -4,-264.35 126.326,-264.35 126.326,4 -4,4"/>
<!-- A -->
<g id="node1" class="node"><title>A</title>
<polygon fill="lightgray" stroke="black" points="27.9767,-260.35 4.97666,-260.35 4.97666,-242.35 27.9767,-242.35 27.9767,-260.35"/>
<text text-anchor="middle" x="16.4767" y="-249.15" font-family="Times,serif" font-size="9.00">A</text>
</g>
<!-- A XOR B -->
<g id="node3" class="node"><title>A XOR B</title>
<ellipse fill="lightblue" stroke="black" cx="37.4767" cy="-103.175" rx="37.4533" ry="37.4533"/>
<text text-anchor="middle" x="37.4767" y="-100.975" font-family="Times,serif" font-size="9.00">A XOR B</text>
</g>
<!-- A&#45;&gt;A XOR B -->
<g id="edge2" class="edge"><title>A&#45;&gt;A XOR B</title>
<path fill="none" stroke="red" stroke-width="1.68717" d="M15.7584,-242.249C15.015,-233.428 13.904,-218.9 13.4767,-206.35 13.0275,-193.159 11.3752,-189.683 13.4767,-176.652 15.0115,-167.134 17.6116,-157.174 20.5477,-147.791"/>
<polygon fill="red" stroke="red" stroke-width="1.68717" points="23.8811,-148.859 23.6984,-138.266 17.2352,-146.661 23.8811,-148.859"/>
</g>
<!-- 2 -->
<g id="node5" class="node"><title>2</title>
<ellipse fill="white" stroke="black" cx="37.4767" cy="-191.501" rx="14.7" ry="14.7"/>
<text text-anchor="middle" x="37.4767" y="-189.301" font-family="Times,serif" font-size="9.00">2</text>
</g>
<!-- A&#45;&gt;2 -->
<g id="edge4" class="edge"><title>A&#45;&gt;2</title>
<path fill="none" stroke="green" stroke-width="1.06239" d="M19.3966,-242.307C21.9394,-235.302 25.7521,-224.799 29.2218,-215.241"/>
<polygon fill="green" stroke="green" stroke-width="1.06239" points="32.5233,-216.403 32.6457,-205.809 25.9434,-214.015 32.5233,-216.403"/>
</g>
<!-- B -->
<g id="node2" class="node"><title>B</title>
<polygon fill="lightgray" stroke="black" points="69.9767,-260.35 46.9767,-260.35 46.9767,-242.35 69.9767,-242.35 69.9767,-260.35"/>
<text text-anchor="middle" x="58.4767" y="-249.15" font-family="Times,serif" font-size="9.00">B</text>
</g>
<!-- B&#45;&gt;A XOR B -->
<g id="edge8" class="edge"><title>B&#45;&gt;A XOR B</title>
<path fill="none" stroke="red" stroke-width="1.72259" d="M59.195,-242.249C59.9383,-233.428 61.0493,-218.9 61.4767,-206.35 61.9259,-193.159 63.5781,-189.683 61.4767,-176.652 59.9418,-167.134 57.3417,-157.174 54.4056,-147.791"/>
<polygon fill="red" stroke="red" stroke-width="1.72259" points="57.7182,-146.661 51.2549,-138.266 51.0723,-148.859 57.7182,-146.661"/>
</g>
<!-- B&#45;&gt;2 -->
<g id="edge1" class="edge"><title>B&#45;&gt;2</title>
<path fill="none" stroke="green" stroke-width="2.34432" d="M55.5567,-242.307C53.0139,-235.302 49.2012,-224.799 45.7316,-215.241"/>
<polygon fill="green" stroke="green" stroke-width="2.34432" points="49.0099,-214.015 42.3077,-205.809 42.43,-216.403 49.0099,-214.015"/>
</g>
<!-- 6 -->
<g id="node7" class="node"><title>6</title>
<ellipse fill="white" stroke="black" cx="48.4767" cy="-14.8492" rx="14.7" ry="14.7"/>
<text text-anchor="middle" x="48.4767" y="-12.6492" font-family="Times,serif" font-size="9.00">6</text>
</g>
<!-- A XOR B&#45;&gt;6 -->
<g id="edge6" class="edge"><title>A XOR B&#45;&gt;6</title>
<path fill="none" stroke="green" stroke-width="0.293654" stroke-dasharray="1,5" d="M42.1098,-65.8154C43.2239,-57.072 44.3867,-47.9465 45.4091,-39.923"/>
<polygon fill="green" stroke="green" stroke-width="0.293654" points="48.9063,-40.1667 46.6984,-29.8044 41.9624,-39.2818 48.9063,-40.1667"/>
</g>
<!-- 1 -->
<g id="node4" class="node"><title>1</title>
<ellipse fill="white" stroke="black" cx="107.477" cy="-103.175" rx="14.7" ry="14.7"/>
<text text-anchor="middle" x="107.477" y="-100.975" font-family="Times,serif" font-size="9.00">1</text>
</g>
<!-- 4 -->
<g id="node6" class="node"><title>4</title>
<ellipse fill="white" stroke="black" cx="107.477" cy="-14.8492" rx="14.7" ry="14.7"/>
<text text-anchor="middle" x="107.477" y="-12.6492" font-family="Times,serif" font-size="9.00">4</text>
</g>
<!-- 1&#45;&gt;4 -->
<g id="edge5" class="edge"><title>1&#45;&gt;4</title>
<path fill="none" stroke="red" stroke-width="0.305277" d="M107.477,-88.3054C107.477,-75.4191 107.477,-55.9373 107.477,-40.4193"/>
<polygon fill="red" stroke="red" stroke-width="0.305277" points="110.977,-39.9713 107.477,-29.9714 103.977,-39.9714 110.977,-39.9713"/>
</g>
<!-- 1&#45;&gt;6 -->
<g id="edge7" class="edge"><title>1&#45;&gt;6</title>
<path fill="none" stroke="green" stroke-width="0.415882" d="M99.7843,-90.2871C95.1194,-83.1274 89.017,-73.8483 83.4767,-65.6985 76.6993,-55.729 69.0174,-44.7533 62.5806,-35.6446"/>
<polygon fill="green" stroke="green" stroke-width="0.415882" points="65.2778,-33.3974 56.6384,-27.2646 59.5676,-37.4464 65.2778,-33.3974"/>
</g>
<!-- 2&#45;&gt;A XOR B -->
<g id="edge3" class="edge"><title>2&#45;&gt;A XOR B</title>
<path fill="none" stroke="green" stroke-width="3.26096" d="M37.4767,-176.631C37.4767,-169.491 37.4767,-160.326 37.4767,-150.932"/>
<polygon fill="green" stroke="green" stroke-width="3.26096" points="40.9768,-150.734 37.4767,-140.734 33.9768,-150.734 40.9768,-150.734"/>
</g>
</g>
</svg>
